<svg width="500" height="500" viewBox="0 0 500 500" fill="none" xmlns="http://www.w3.org/2000/svg">
<g clip-path="url(#clip0_1_27)">
<path fill-rule="evenodd" clip-rule="evenodd" d="M500 357.393C463.555 376.293 422.159 386.971 378.27 386.971C232.031 386.971 113.481 268.421 113.481 122.182C113.481 78.2922 124.159 36.8968 143.059 0.451661C58.0695 44.5263 0 133.313 0 235.663C0 381.902 118.55 500.452 264.789 500.452C367.139 500.452 455.925 442.382 500 357.393Z" fill="#1E1E1E"/>
<path d="M265 31L279.315 69.6852L318 84L279.315 98.3148L265 137L250.685 98.3148L212 84L250.685 69.6852L265 31Z" fill="#1E1E1E"/>
<path d="M431 202L445.315 240.685L484 255L445.315 269.315L431 308L416.685 269.315L378 255L416.685 240.685L431 202Z" fill="#1E1E1E"/>
</g>
<defs>
<clipPath id="clip0_1_27">
<rect width="500" height="500" fill="white"/>
</clipPath>
</defs>
</svg>
